ffmpeg version 4.4.1-essentials_build-www.gyan.dev Copyright (c) 2000-2021 the FFmpeg developers
  built with gcc 11.2.0 (Rev1, Built by MSYS2 project)
  configuration: --enable-gpl --enable-version3 --enable-static --disable-w32threads --disable-autodetect --enable-fontconfig --enable-iconv --enable-gnutls --enable-libxml2 --enable-gmp --enable-lzma --enable-zlib --enable-libsrt --enable-libssh --enable-libzmq --enable-avisynth --enable-sdl2 --enable-libwebp --enable-libx264 --enable-libx265 --enable-libxvid --enable-libaom --enable-libopenjpeg --enable-libvpx --enable-libass --enable-libfreetype --enable-libfribidi --enable-libvidstab --enable-libvmaf --enable-libzimg --enable-amf --enable-cuda-llvm --enable-cuvid --enable-ffnvcodec --enable-nvdec --enable-nvenc --enable-d3d11va --enable-dxva2 --enable-libmfx --enable-libgme --enable-libopenmpt --enable-libopencore-amrwb --enable-libmp3lame --enable-libtheora --enable-libvo-amrwbenc --enable-libgsm --enable-libopencore-amrnb --enable-libopus --enable-libspeex --enable-libvorbis --enable-librubberband
  libavutil      56. 70.100 / 56. 70.100
  libavcodec     58.134.100 / 58.134.100
  libavformat    58. 76.100 / 58. 76.100
  libavdevice    58. 13.100 / 58. 13.100
  libavfilter     7.110.100 /  7.110.100
  libswscale      5.  9.100 /  5.  9.100
  libswresample   3.  9.100 /  3.  9.100
  libpostproc    55.  9.100 / 55.  9.100
Input #0, rawvideo, from 'pipe:':
  Duration: N/A, start: 0.000000, bitrate: 345600 kb/s
  Stream #0:0: Video: rawvideo (RGB[24] / 0x18424752), rgb24, 800x600, 345600 kb/s, 30 tbr, 30 tbn, 30 tbc
Stream mapping:
  Stream #0:0 -> #0:0 (rawvideo (native) -> h264 (libx264))
[libx264 @ 000001da42502d80] using cpu capabilities: MMX2 SSE2Fast SSSE3 SSE4.2 AVX FMA3 BMI2 AVX2
[libx264 @ 000001da42502d80] profile High, level 3.1, 4:2:0, 8-bit
[libx264 @ 000001da42502d80] 264 - core 164 r3075 66a5bc1 - H.264/MPEG-4 AVC codec - Copyleft 2003-2021 - http://www.videolan.org/x264.html - options: cabac=1 ref=3 deblock=1:0:0 analyse=0x3:0x113 me=hex subme=7 psy=1 psy_rd=1.00:0.00 mixed_ref=1 me_range=16 chroma_me=1 trellis=1 8x8dct=1 cqm=0 deadzone=21,11 fast_pskip=1 chroma_qp_offset=-2 threads=12 lookahead_threads=2 sliced_threads=0 nr=0 decimate=1 interlaced=0 bluray_compat=0 constrained_intra=0 bframes=3 b_pyramid=2 b_adapt=1 b_bias=0 direct=1 weightb=1 open_gop=0 weightp=2 keyint=250 keyint_min=25 scenecut=40 intra_refresh=0 rc_lookahead=40 rc=crf mbtree=1 crf=23.0 qcomp=0.60 qpmin=0 qpmax=69 qpstep=4 ip_ratio=1.40 aq=1:1.00
Output #0, mp4, to 'output.mp4':
  Metadata:
    encoder         : Lavf58.76.100
  Stream #0:0: Video: h264 (avc1 / 0x31637661), yuv420p(tv, progressive), 800x600, q=2-31, 30 fps, 15360 tbn
    Metadata:
      encoder         : Lavc58.134.100 libx264
    Side data:
      cpb: bitrate max/min/avg: 0/0/0 buffer size: 0 vbv_delay: N/A
frame=    1 fps=0.0 q=0.0 size=       0kB time=00:00:00.00 bitrate=N/A speed=   0x    frame=   36 fps=0.0 q=0.0 size=       0kB time=00:00:00.00 bitrate=N/A speed=   0x    frame=   74 fps= 72 q=29.0 size=       0kB time=00:00:00.50 bitrate=   0.8kbits/s speed=0.489x    frame=  114 fps= 74 q=29.0 size=       0kB time=00:00:01.83 bitrate=   0.2kbits/s speed= 1.2x    frame=  153 fps= 75 q=29.0 size=       0kB time=00:00:03.13 bitrate=   0.1kbits/s speed=1.54x    frame=  192 fps= 75 q=29.0 size=       0kB time=00:00:04.43 bitrate=   0.1kbits/s speed=1.74x    frame=  231 fps= 76 q=29.0 size=       0kB time=00:00:05.73 bitrate=   0.1kbits/s speed=1.88x    frame=  270 fps= 76 q=29.0 size=       0kB time=00:00:07.03 bitrate=   0.1kbits/s speed=1.97x    frame=  309 fps= 76 q=29.0 size=       0kB time=00:00:08.33 bitrate=   0.0kbits/s speed=2.05x    frame=  349 fps= 76 q=29.0 size=     256kB time=00:00:09.66 bitrate= 217.0kbits/s speed=2.11x    frame=  388 fps= 76 q=29.0 size=     256kB time=00:00:10.96 bitrate= 191.3kbits/s speed=2.16x    frame=  427 fps= 76 q=29.0 size=     256kB time=00:00:12.26 bitrate= 171.0kbits/s speed=2.19x    frame=  466 fps= 76 q=29.0 size=     256kB time=00:00:13.56 bitrate= 154.6kbits/s speed=2.22x    frame=  506 fps= 76 q=29.0 size=     256kB time=00:00:14.90 bitrate= 140.8kbits/s speed=2.25x    frame=  546 fps= 77 q=26.0 size=     256kB time=00:00:16.23 bitrate= 129.2kbits/s speed=2.28x    frame=  585 fps= 77 q=29.0 size=     256kB time=00:00:17.53 bitrate= 119.6kbits/s speed= 2.3x    frame=  625 fps= 77 q=29.0 size=     256kB time=00:00:18.86 bitrate= 111.2kbits/s speed=2.32x    frame=  664 fps= 77 q=29.0 size=     256kB time=00:00:20.16 bitrate= 104.0kbits/s speed=2.33x    frame=  703 fps= 77 q=29.0 size=     512kB time=00:00:21.46 bitrate= 195.4kbits/s speed=2.34x    frame=  742 fps= 77 q=29.0 size=     512kB time=00:00:22.76 bitrate= 184.2kbits/s speed=2.36x    frame=  782 fps= 77 q=29.0 size=     512kB time=00:00:24.10 bitrate= 174.1kbits/s speed=2.37x    frame=  821 fps= 77 q=29.0 size=     512kB time=00:00:25.40 bitrate= 165.1kbits/s speed=2.38x    frame=  860 fps= 77 q=29.0 size=     512kB time=00:00:26.70 bitrate= 157.1kbits/s speed=2.39x    frame=  900 fps= 77 q=29.0 size=     512kB time=00:00:28.03 bitrate= 149.6kbits/s speed= 2.4x    frame=  939 fps= 77 q=29.0 size=     512kB time=00:00:29.33 bitrate= 143.0kbits/s speed= 2.4x    frame=  979 fps= 77 q=29.0 size=     768kB time=00:00:30.66 bitrate= 205.2kbits/s speed=2.41x    frame= 1018 fps= 77 q=29.0 size=     768kB time=00:00:31.96 bitrate= 196.8kbits/s speed=2.42x    frame= 1058 fps= 77 q=29.0 size=     768kB time=00:00:33.30 bitrate= 188.9kbits/s speed=2.43x    frame= 1097 fps= 77 q=29.0 size=     768kB time=00:00:34.60 bitrate= 181.8kbits/s speed=2.43x    frame= 1136 fps= 77 q=29.0 size=     768kB time=00:00:35.90 bitrate= 175.3kbits/s speed=2.44x    frame= 1176 fps= 77 q=29.0 size=     768kB time=00:00:37.23 bitrate= 169.0kbits/s speed=2.44x    frame= 1215 fps= 77 q=29.0 size=     768kB time=00:00:38.53 bitrate= 163.3kbits/s speed=2.45x    frame= 1255 fps= 77 q=29.0 size=    1024kB time=00:00:39.86 bitrate= 210.4kbits/s speed=2.45x    frame= 1294 fps= 77 q=29.0 size=    1024kB time=00:00:41.16 bitrate= 203.8kbits/s speed=2.46x    frame= 1332 fps= 77 q=29.0 size=    1024kB time=00:00:42.43 bitrate= 197.7kbits/s speed=2.46x    frame= 1371 fps= 77 q=29.0 size=    1024kB time=00:00:43.73 bitrate= 191.8kbits/s speed=2.46x    frame= 1410 fps= 77 q=29.0 size=    1024kB time=00:00:45.03 bitrate= 186.3kbits/s speed=2.46x    frame= 1449 fps= 77 q=29.0 size=    1024kB time=00:00:46.33 bitrate= 181.1kbits/s speed=2.47x    frame= 1488 fps= 77 q=29.0 size=    1024kB time=00:00:47.63 bitrate= 176.1kbits/s speed=2.47x    frame= 1526 fps= 77 q=29.0 size=    1280kB time=00:00:48.90 bitrate= 214.4kbits/s speed=2.47x    frame= 1563 fps= 77 q=29.0 size=    1280kB time=00:00:50.13 bitrate= 209.2kbits/s speed=2.47x    frame= 1600 fps= 77 q=29.0 size=    1280kB time=00:00:51.36 bitrate= 204.1kbits/s speed=2.47x    frame= 1632 fps= 76 q=-1.0 Lsize=    1466kB time=00:00:54.30 bitrate= 221.2kbits/s speed=2.53x    
video:1449kB audio:0kB subtitle:0kB other streams:0kB global headers:0kB muxing overhead: 1.184425%
[libx264 @ 000001da42502d80] frame I:7     Avg QP:13.14  size: 18246
[libx264 @ 000001da42502d80] frame P:618   Avg QP:19.11  size:  1907
[libx264 @ 000001da42502d80] frame B:1007  Avg QP:20.14  size:   176
[libx264 @ 000001da42502d80] consecutive B-frames:  9.5% 10.7% 42.1% 37.7%
[libx264 @ 000001da42502d80] mb I  I16..4: 57.6% 28.2% 14.2%
[libx264 @ 000001da42502d80] mb P  I16..4:  1.3%  0.9%  0.1%  P16..4: 13.1%  2.4%  1.8%  0.0%  0.0%    skip:80.5%
[libx264 @ 000001da42502d80] mb B  I16..4:  0.1%  0.0%  0.0%  B16..8:  6.8%  0.3%  0.0%  direct: 0.1%  skip:92.8%  L0:28.1% L1:71.2% BI: 0.7%
[libx264 @ 000001da42502d80] 8x8 transform intra:34.3% inter:68.0%
[libx264 @ 000001da42502d80] coded y,uvDC,uvAC intra: 11.7% 20.9% 14.4% inter: 3.2% 5.1% 1.1%
[libx264 @ 000001da42502d80] i16 v,h,dc,p: 71% 24%  3%  2%
[libx264 @ 000001da42502d80] i8 v,h,dc,ddl,ddr,vr,hd,vl,hu: 13% 15% 67%  1%  1%  1%  1%  1%  1%
[libx264 @ 000001da42502d80] i4 v,h,dc,ddl,ddr,vr,hd,vl,hu: 23% 32% 20%  3%  5%  4%  5%  3%  5%
[libx264 @ 000001da42502d80] i8c dc,h,v,p: 63% 24%  9%  3%
[libx264 @ 000001da42502d80] Weighted P-Frames: Y:31.9% UV:26.1%
[libx264 @ 000001da42502d80] ref P L0: 62.7% 27.2%  8.8%  1.1%  0.2%
[libx264 @ 000001da42502d80] ref B L0: 90.4%  9.2%  0.5%
[libx264 @ 000001da42502d80] ref B L1: 99.6%  0.4%
[libx264 @ 000001da42502d80] kb/s:218.07
